<?xml version="1.0" encoding="UTF-8"?>
<svg xmlns="http://www.w3.org/2000/svg" width="200" height="49" viewBox="0 0 200 49" fill="none">
  <path fill-rule="evenodd" clip-rule="evenodd" d="M11.1614 36.0133L22.7485 12.0771L29.121 25.2251L11.1614 36.0144V36.0133ZM47.2725 45.0204L39.119 28.2003L47.0625 23.4282L42.9898 16.8923L35.7478 21.2432L27.8122 4.8691C27.3264 3.86566 26.5852 3.03362 25.6692 2.46152C24.7463 1.88716 23.6873 1.59657 22.6055 1.62494C21.5226 1.65219 20.4772 1.99613 19.5827 2.61817C18.728 3.21297 18.0469 4.04388 17.6076 5.02462L1.70479 37.8771L1.66733 37.9657C0.609409 40.4607 1.30977 43.2871 3.40972 45.0011C5.47107 46.6834 8.31338 46.8264 10.528 45.3769L32.4934 32.1823L38.7161 45.0216H47.2725V45.0204ZM58.5602 1.62329H50.1873V44.9705H58.5602V1.62329ZM72.0408 21.8924H84.4777V21.8936C90.8812 21.8936 93.0362 18.5357 93.0362 14.7498C93.0362 10.9638 90.8812 7.8511 84.5392 7.8511H72.0408V21.8924ZM86.0791 1.62329C98.024 1.62329 101.841 7.97308 101.841 14.6888C101.841 19.7555 99.1938 25.0063 92.051 26.8383L103.318 44.9705H93.8358L83.3694 27.9373H72.0408V44.9705H63.6679V1.62329H86.0791ZM104.363 8.339H120.309V44.9705H128.684V8.339H144.63V1.62329H104.363V8.339ZM160.806 1.62329H148.431H148.43V44.9705H156.003V13.5898C156.003 11.6359 155.88 9.86487 155.695 8.339H155.941C156.187 9.50012 156.804 11.759 157.42 13.4069L169.857 44.9717H177.738L190.174 13.4069C190.852 11.7578 191.59 9.31598 191.776 8.339H192.022C191.837 9.92704 191.714 11.8188 191.714 13.5898V44.9705H199.534V1.62329H187.035L175.275 31.844C174.598 33.6748 174.228 34.7738 173.982 36.2398H173.859C173.64 34.9374 173.324 33.9725 172.824 32.444C172.762 32.2534 172.696 32.0539 172.628 31.844L160.806 1.62329Z" fill="#050505"></path>
</svg>
